<?xml version="1.0" standalone="no"?>
<!DOCTYPE svg PUBLIC "-//W3C//DTD SVG 20010904//EN"
 "http://www.w3.org/TR/2001/REC-SVG-20010904/DTD/svg10.dtd">
<svg version="1.0" xmlns="http://www.w3.org/2000/svg"
 width="706.000000pt" height="706.000000pt" viewBox="0 0 706.000000 706.000000"
 preserveAspectRatio="xMidYMid meet">
<metadata>
Created by potrace 1.14, written by Peter Selinger 2001-2017
</metadata>
<g transform="translate(0.000000,706.000000) scale(0.100000,-0.100000)"
fill="#000000" stroke="none">
<path d="M4930 6515 c-30 -13 -111 -47 -180 -75 -172 -71 -291 -120 -315 -130
-22 -10 -140 -59 -820 -340 -242 -99 -504 -208 -582 -241 -78 -32 -144 -59
-147 -59 -3 0 -35 -13 -71 -30 -36 -16 -68 -30 -72 -30 -4 0 -25 -9 -47 -19
-23 -11 -75 -33 -116 -49 -60 -24 -75 -34 -73 -49 1 -11 43 -119 94 -239 50
-120 116 -280 146 -354 30 -74 61 -150 69 -167 8 -18 20 -48 28 -65 8 -18 24
-58 36 -88 12 -30 28 -71 37 -90 8 -19 22 -49 29 -66 8 -18 34 -81 58 -140 24
-60 83 -203 131 -319 48 -115 103 -248 122 -295 19 -47 39 -94 44 -105 48
-107 178 -430 174 -434 -3 -2 -15 1 -28 7 -21 10 -133 56 -562 232 -110 45
-213 87 -230 95 -16 7 -70 29 -120 49 -49 20 -99 41 -110 46 -11 5 -240 100
-510 210 -269 111 -517 213 -550 227 -33 14 -73 31 -90 38 -16 7 -79 33 -140
57 l-110 45 -34 -86 c-19 -47 -42 -104 -52 -126 -9 -22 -65 -157 -124 -300
-59 -143 -113 -273 -121 -290 -7 -16 -76 -185 -154 -375 -78 -190 -147 -358
-155 -375 -11 -27 -285 -687 -355 -857 -19 -47 -24 -70 -17 -77 6 -6 14 -11
18 -11 4 0 24 -8 45 -17 22 -9 41 -17 44 -18 6 -2 24 -9 175 -72 61 -25 124
-51 140 -58 17 -7 71 -29 120 -49 50 -20 99 -41 110 -46 11 -5 61 -26 110 -46
81 -32 115 -47 180 -75 11 -4 43 -17 70 -28 28 -10 367 -150 754 -310 387
-160 706 -290 707 -288 2 2 23 52 48 112 24 61 221 535 436 1055 215 520 421
1018 458 1107 37 90 70 163 73 163 3 0 23 -42 44 -92 21 -51 46 -111 55 -133
10 -22 39 -92 65 -155 26 -63 52 -126 58 -140 5 -14 11 -29 13 -35 1 -5 46
-113 99 -240 124 -294 232 -556 257 -620 11 -27 26 -63 33 -80 8 -16 32 -75
55 -130 23 -55 52 -127 66 -160 14 -33 29 -69 33 -80 5 -11 13 -31 19 -45 7
-14 68 -162 137 -330 69 -167 127 -306 129 -307 1 -2 16 3 32 11 16 8 119 51
229 96 110 45 216 88 235 96 19 9 45 20 58 25 12 5 32 13 45 19 12 5 141 58
287 119 146 60 301 124 345 142 44 19 82 34 85 35 3 0 16 5 30 11 86 37 611
255 880 365 52 21 109 45 125 53 17 8 56 24 87 35 57 21 63 31 37 65 -4 6 -7
12 -8 15 0 10 -51 141 -71 185 -5 11 -50 119 -100 240 -50 121 -95 229 -100
240 -11 24 -304 730 -330 795 -33 83 -116 285 -132 320 -9 19 -42 98 -73 175
-32 77 -65 158 -75 180 -10 22 -31 74 -48 115 -38 96 -439 1065 -457 1105 -7
17 -39 93 -70 169 -31 77 -61 146 -65 155 -5 9 -50 117 -100 241 -89 216 -129
313 -170 410 -21 48 -208 502 -230 558 -7 18 -16 34 -19 37 -4 2 -32 -7 -61
-20z"/>
</g>
</svg>
